<?xml version="1.0" standalone="no"?>
<!DOCTYPE svg PUBLIC "-//W3C//DTD SVG 20010904//EN"
 "http://www.w3.org/TR/2001/REC-SVG-20010904/DTD/svg10.dtd">
<svg version="1.0" xmlns="http://www.w3.org/2000/svg"
 width="572.000000pt" height="380.000000pt" viewBox="0 0 572.000000 380.000000"
 preserveAspectRatio="xMidYMid meet">

<g transform="translate(0.000000,380.000000) scale(0.100000,-0.100000)"
fill="#000000" stroke="none">
<path d="M0 1900 l0 -1900 2860 0 2860 0 0 1900 0 1900 -2860 0 -2860 0 0
-1900z m4717 1383 c-3 -10 -5 -4 -5 12 0 17 2 24 5 18 2 -7 2 -21 0 -30z
m-1970 -255 c-3 -8 -6 -5 -6 6 -1 11 2 17 5 13 3 -3 4 -12 1 -19z m1983 -282
c0 -2 -8 -10 -17 -17 -16 -13 -17 -12 -4 4 13 16 21 21 21 13z m-3944 -168
l29 -33 -32 29 c-18 17 -33 31 -33 33 0 8 8 1 36 -29z m29 -118 c10 -11 16
-20 13 -20 -3 0 -13 9 -23 20 -10 11 -16 20 -13 20 3 0 13 -9 23 -20z m1210
-17 c-11 -3 -23 -10 -27 -17 -5 -7 -8 -5 -8 7 0 12 7 17 28 16 21 -1 22 -2 7
-6z m1762 -50 c-3 -10 -5 -2 -5 17 0 19 2 27 5 18 2 -10 2 -26 0 -35z m-1282
-179 c110 -13 261 -28 335 -31 80 -3 138 -10 142 -17 4 -6 10 -36 13 -66 13
-119 20 -127 72 -93 24 16 54 17 298 15 l272 -4 92 117 c121 153 124 152 131
-25 3 -74 9 -141 14 -149 6 -10 23 -12 62 -8 39 4 56 2 65 -9 18 -21 254 -20
267 1 7 13 28 15 123 13 l114 -3 3 -43 c5 -68 -4 -73 -127 -68 -65 2 -107 8
-109 15 -5 14 -272 15 -272 1 0 -5 -9 -10 -20 -10 -11 0 -20 4 -20 9 0 5 -19
8 -42 7 -42 -1 -43 -2 -52 -43 -7 -31 -15 -43 -28 -43 -13 0 -18 8 -18 30 0
36 -23 50 -79 50 -39 0 -41 -2 -41 -30 0 -20 -5 -30 -15 -30 -8 0 -15 -4 -15
-8 0 -13 -84 -17 -351 -17 -212 0 -239 2 -256 18 -24 21 -89 23 -96 3 -3 -8
-23 -18 -43 -22 l-37 -7 6 -156 c5 -160 26 -270 77 -403 11 -30 16 -56 11 -61
-5 -5 -58 -28 -117 -52 l-109 -44 -17 22 c-24 32 -55 134 -85 285 l-27 132
-178 0 -178 0 -66 -131 c-47 -95 -64 -138 -60 -155 5 -20 2 -24 -15 -24 -27 0
-199 89 -206 106 -3 7 34 77 81 155 71 117 86 149 86 183 0 53 -22 84 -65 92
-32 6 -35 9 -35 40 0 18 -5 36 -11 39 -22 14 -131 -7 -153 -29 -24 -24 -74
-49 -231 -113 -60 -25 -147 -62 -191 -83 l-81 -38 -13 -51 c-13 -57 -25 -65
-100 -77 -37 -6 -40 -4 -51 22 -12 33 -69 411 -69 465 l0 36 358 5 c290 4 359
2 365 -9 10 -17 123 -17 157 0 20 10 26 21 28 55 3 42 3 42 42 42 37 0 40 3
63 48 28 56 111 168 130 175 6 2 26 3 42 0 17 -2 120 -15 230 -29z m-1695
-507 c0 -2 -10 -12 -22 -23 l-23 -19 19 23 c18 21 26 27 26 19z m-203 -333
c-3 -3 -12 -4 -19 -1 -8 3 -5 6 6 6 11 1 17 -2 13 -5z m1094 -451 c13 -16 12
-17 -3 -4 -17 13 -22 21 -14 21 2 0 10 -8 17 -17z m3116 -119 c-3 -3 -12 -4
-19 -1 -8 3 -5 6 6 6 11 1 17 -2 13 -5z"/>
<path d="M2284 2127 c-27 -32 -39 -69 -30 -92 5 -13 52 -15 344 -15 249 0 341
3 350 12 15 15 16 53 2 78 -22 42 -42 45 -348 45 l-294 1 -24 -29z"/>
<path d="M3756 2089 c-44 -58 -53 -88 -40 -123 8 -21 64 -22 64 -1 0 8 7 15
15 15 12 0 15 16 15 85 0 47 -2 85 -4 85 -2 0 -25 -27 -50 -61z"/>
<path d="M2470 1661 c-33 -9 -47 -58 -31 -111 l12 -40 59 0 c77 0 90 13 90 91
0 49 -3 59 -17 60 -10 0 -34 2 -53 3 -19 2 -46 0 -60 -3z"/>
<path d="M2332 1633 c-6 -10 -13 -39 -17 -64 -6 -43 -5 -47 17 -52 38 -11 78
-8 84 6 2 7 1 37 -3 67 -8 53 -10 55 -40 58 -22 2 -34 -2 -41 -15z"/>
</g>
</svg>
